<mxfile host="app.diagrams.net" agent="Mozilla/5.0 (Windows NT 10.0; Win64; x64) AppleWebKit/537.36 (KHTML, like Gecko) Chrome/134.0.0.0 Safari/537.36" version="26.1.1">
  <diagram name="PÃ¡gina-1" id="bwLytBnpC0Aiv7bmX5Qd">
    <mxGraphModel dx="1050" dy="565" grid="1" gridSize="10" guides="1" tooltips="1" connect="1" arrows="1" fold="1" page="1" pageScale="1" pageWidth="827" pageHeight="1169" math="0" shadow="0">
      <root>
        <mxCell id="0" />
        <mxCell id="1" parent="0" />
        <mxCell id="6v8q5hK1JwmgnCZnJ-K6-1" value="t_category" style="rounded=1;whiteSpace=wrap;html=1;" vertex="1" parent="1">
          <mxGeometry x="570" y="400" width="110" height="30" as="geometry" />
        </mxCell>
        <mxCell id="6v8q5hK1JwmgnCZnJ-K6-7" value="" style="edgeStyle=orthogonalEdgeStyle;rounded=0;orthogonalLoop=1;jettySize=auto;html=1;" edge="1" parent="1" source="6v8q5hK1JwmgnCZnJ-K6-2" target="6v8q5hK1JwmgnCZnJ-K6-5">
          <mxGeometry relative="1" as="geometry" />
        </mxCell>
        <mxCell id="6v8q5hK1JwmgnCZnJ-K6-2" value="t_order" style="rounded=1;whiteSpace=wrap;html=1;" vertex="1" parent="1">
          <mxGeometry x="290" y="400" width="110" height="30" as="geometry" />
        </mxCell>
        <mxCell id="6v8q5hK1JwmgnCZnJ-K6-3" value="t_item" style="rounded=1;whiteSpace=wrap;html=1;" vertex="1" parent="1">
          <mxGeometry x="430" y="400" width="110" height="30" as="geometry" />
        </mxCell>
        <mxCell id="6v8q5hK1JwmgnCZnJ-K6-6" style="edgeStyle=orthogonalEdgeStyle;rounded=0;orthogonalLoop=1;jettySize=auto;html=1;" edge="1" parent="1" source="6v8q5hK1JwmgnCZnJ-K6-4" target="6v8q5hK1JwmgnCZnJ-K6-5">
          <mxGeometry relative="1" as="geometry" />
        </mxCell>
        <mxCell id="6v8q5hK1JwmgnCZnJ-K6-4" value="t_customer" style="rounded=1;whiteSpace=wrap;html=1;" vertex="1" parent="1">
          <mxGeometry x="150" y="400" width="110" height="30" as="geometry" />
        </mxCell>
        <mxCell id="6v8q5hK1JwmgnCZnJ-K6-5" value="vw_cumpleaneros_ventas" style="rounded=1;whiteSpace=wrap;html=1;" vertex="1" parent="1">
          <mxGeometry x="206" y="330" width="140" height="30" as="geometry" />
        </mxCell>
      </root>
    </mxGraphModel>
  </diagram>
</mxfile>
